<svg width="16" height="16" viewBox="0 0 16 16" fill="none" xmlns="http://www.w3.org/2000/svg">
<path d="M14.6666 8.83337V3.00004C14.6666 2.07957 13.9204 1.33337 12.9999 1.33337H2.99992C2.07944 1.33337 1.33325 2.07957 1.33325 3.00004V8.83337M14.6666 8.83337V13C14.6666 13.9205 13.9204 14.6667 12.9999 14.6667H2.99992C2.07944 14.6667 1.33325 13.9205 1.33325 13V8.83337M14.6666 8.83337H12.5118C12.2907 8.83337 12.0788 8.92117 11.9225 9.07745L9.91066 11.0893C9.75438 11.2456 9.54242 11.3334 9.32141 11.3334H6.67843C6.45742 11.3334 6.24545 11.2456 6.08917 11.0893L4.07733 9.07745C3.92105 8.92117 3.70909 8.83337 3.48807 8.83337H1.33325" stroke="#D1D5DB" stroke-width="1.67" stroke-linecap="round" stroke-linejoin="round"/>
</svg>
